<mxfile host="app.diagrams.net" modified="2022-08-30T11:00:50.023Z" agent="5.0 (Windows)" etag="ItWGAtwIGZcQlBTbewkf" version="20.2.7" type="github">
  <diagram id="A2XSHuqJlMq8rNMNuziP" name="Page-1">
    <mxGraphModel dx="3415" dy="1758" grid="1" gridSize="10" guides="1" tooltips="1" connect="1" arrows="1" fold="1" page="0" pageScale="1" pageWidth="1100" pageHeight="1100" background="#FFFFFF" math="0" shadow="0">
      <root>
        <mxCell id="0" />
        <mxCell id="1" parent="0" />
        <mxCell id="5oaeEAeBF5l6Jmh7AZM0-8" style="edgeStyle=orthogonalEdgeStyle;rounded=0;orthogonalLoop=1;jettySize=auto;html=1;exitX=1;exitY=0.5;exitDx=0;exitDy=0;exitPerimeter=0;entryX=0;entryY=0.5;entryDx=0;entryDy=0;entryPerimeter=0;" edge="1" parent="1" source="ZJu1gmb1K3_EzXzDdYMx-19" target="ZJu1gmb1K3_EzXzDdYMx-107">
          <mxGeometry relative="1" as="geometry" />
        </mxCell>
        <mxCell id="5oaeEAeBF5l6Jmh7AZM0-11" value="" style="rounded=0;whiteSpace=wrap;html=1;fontSize=36;" vertex="1" parent="1">
          <mxGeometry x="40" y="-40" width="1480" height="1410" as="geometry" />
        </mxCell>
        <object label="AWS" id="ZJu1gmb1K3_EzXzDdYMx-7">
          <mxCell parent="0" />
        </object>
        <mxCell id="ZJu1gmb1K3_EzXzDdYMx-51" value="AWS" style="sketch=0;outlineConnect=0;gradientColor=none;html=1;whiteSpace=wrap;fontSize=12;fontStyle=0;shape=mxgraph.aws4.group;grIcon=mxgraph.aws4.group_vpc;strokeColor=#B6BABF;fillColor=none;verticalAlign=top;align=left;spacingLeft=30;fontColor=#B6BABF;dashed=0;" parent="ZJu1gmb1K3_EzXzDdYMx-7" vertex="1">
          <mxGeometry x="200" y="160" width="1200" height="1160" as="geometry" />
        </mxCell>
        <mxCell id="5oaeEAeBF5l6Jmh7AZM0-14" value="&lt;h1&gt;&lt;font style=&quot;font-size: 36px;&quot;&gt;Facto - Architecture&lt;/font&gt;&lt;/h1&gt;" style="text;strokeColor=none;fillColor=none;html=1;fontSize=24;fontStyle=1;verticalAlign=middle;align=center;" vertex="1" parent="ZJu1gmb1K3_EzXzDdYMx-7">
          <mxGeometry x="200" y="40" width="470" height="90" as="geometry" />
        </mxCell>
        <object label="VPC,Subnet,SG" id="ZJu1gmb1K3_EzXzDdYMx-52">
          <mxCell parent="0" />
        </object>
        <mxCell id="ZJu1gmb1K3_EzXzDdYMx-58" value="VPC" style="points=[[0,0],[0.25,0],[0.5,0],[0.75,0],[1,0],[1,0.25],[1,0.5],[1,0.75],[1,1],[0.75,1],[0.5,1],[0.25,1],[0,1],[0,0.75],[0,0.5],[0,0.25]];outlineConnect=0;gradientColor=none;html=1;whiteSpace=wrap;fontSize=12;fontStyle=0;container=1;pointerEvents=0;collapsible=0;recursiveResize=0;shape=mxgraph.aws4.group;grIcon=mxgraph.aws4.group_vpc;strokeColor=#248814;fillColor=none;verticalAlign=top;align=left;spacingLeft=30;fontColor=#AAB7B8;dashed=0;" parent="ZJu1gmb1K3_EzXzDdYMx-52" vertex="1">
          <mxGeometry x="1080" y="590" width="280" height="220" as="geometry" />
        </mxCell>
        <mxCell id="ZJu1gmb1K3_EzXzDdYMx-59" value="Private subnet" style="points=[[0,0],[0.25,0],[0.5,0],[0.75,0],[1,0],[1,0.25],[1,0.5],[1,0.75],[1,1],[0.75,1],[0.5,1],[0.25,1],[0,1],[0,0.75],[0,0.5],[0,0.25]];outlineConnect=0;gradientColor=none;html=1;whiteSpace=wrap;fontSize=12;fontStyle=0;container=1;pointerEvents=0;collapsible=0;recursiveResize=0;shape=mxgraph.aws4.group;grIcon=mxgraph.aws4.group_security_group;grStroke=0;strokeColor=#147EBA;fillColor=#E6F2F8;verticalAlign=top;align=left;spacingLeft=30;fontColor=#147EBA;dashed=0;" parent="ZJu1gmb1K3_EzXzDdYMx-58" vertex="1">
          <mxGeometry x="40" y="30" width="200" height="160" as="geometry" />
        </mxCell>
        <mxCell id="ZJu1gmb1K3_EzXzDdYMx-62" value="" style="sketch=0;points=[[0,0,0],[0.25,0,0],[0.5,0,0],[0.75,0,0],[1,0,0],[0,1,0],[0.25,1,0],[0.5,1,0],[0.75,1,0],[1,1,0],[0,0.25,0],[0,0.5,0],[0,0.75,0],[1,0.25,0],[1,0.5,0],[1,0.75,0]];outlineConnect=0;fontColor=#232F3E;gradientColor=#F78E04;gradientDirection=north;fillColor=#D05C17;strokeColor=#ffffff;dashed=0;verticalLabelPosition=bottom;verticalAlign=top;align=center;html=1;fontSize=12;fontStyle=0;aspect=fixed;shape=mxgraph.aws4.resourceIcon;resIcon=mxgraph.aws4.lambda;" parent="ZJu1gmb1K3_EzXzDdYMx-59" vertex="1">
          <mxGeometry x="80" y="60" width="40" height="40" as="geometry" />
        </mxCell>
        <mxCell id="ZJu1gmb1K3_EzXzDdYMx-63" value="facto-bulk-upload-dev-facto-cases-bulk-upload-lambda" style="text;html=1;strokeColor=none;fillColor=none;align=center;verticalAlign=middle;whiteSpace=wrap;rounded=0;" parent="ZJu1gmb1K3_EzXzDdYMx-59" vertex="1">
          <mxGeometry x="30" y="105" width="160" height="30" as="geometry" />
        </mxCell>
        <object label="Lambda-api" id="ZJu1gmb1K3_EzXzDdYMx-8">
          <mxCell parent="0" />
        </object>
        <mxCell id="ZJu1gmb1K3_EzXzDdYMx-9" value="" style="sketch=0;points=[[0,0,0],[0.25,0,0],[0.5,0,0],[0.75,0,0],[1,0,0],[0,1,0],[0.25,1,0],[0.5,1,0],[0.75,1,0],[1,1,0],[0,0.25,0],[0,0.5,0],[0,0.75,0],[1,0.25,0],[1,0.5,0],[1,0.75,0]];outlineConnect=0;fontColor=#232F3E;gradientColor=#F78E04;gradientDirection=north;fillColor=#D05C17;strokeColor=#ffffff;dashed=0;verticalLabelPosition=bottom;verticalAlign=top;align=center;html=1;fontSize=12;fontStyle=0;aspect=fixed;shape=mxgraph.aws4.resourceIcon;resIcon=mxgraph.aws4.lambda;" parent="ZJu1gmb1K3_EzXzDdYMx-8" vertex="1">
          <mxGeometry x="560" y="240" width="40" height="40" as="geometry" />
        </mxCell>
        <mxCell id="ZJu1gmb1K3_EzXzDdYMx-10" value="" style="sketch=0;points=[[0,0,0],[0.25,0,0],[0.5,0,0],[0.75,0,0],[1,0,0],[0,1,0],[0.25,1,0],[0.5,1,0],[0.75,1,0],[1,1,0],[0,0.25,0],[0,0.5,0],[0,0.75,0],[1,0.25,0],[1,0.5,0],[1,0.75,0]];outlineConnect=0;fontColor=#232F3E;gradientColor=#F78E04;gradientDirection=north;fillColor=#D05C17;strokeColor=#ffffff;dashed=0;verticalLabelPosition=bottom;verticalAlign=top;align=center;html=1;fontSize=12;fontStyle=0;aspect=fixed;shape=mxgraph.aws4.resourceIcon;resIcon=mxgraph.aws4.lambda;" parent="ZJu1gmb1K3_EzXzDdYMx-8" vertex="1">
          <mxGeometry x="690" y="290" width="40" height="40" as="geometry" />
        </mxCell>
        <mxCell id="ZJu1gmb1K3_EzXzDdYMx-11" value="" style="sketch=0;points=[[0,0,0],[0.25,0,0],[0.5,0,0],[0.75,0,0],[1,0,0],[0,1,0],[0.25,1,0],[0.5,1,0],[0.75,1,0],[1,1,0],[0,0.25,0],[0,0.5,0],[0,0.75,0],[1,0.25,0],[1,0.5,0],[1,0.75,0]];outlineConnect=0;fontColor=#232F3E;gradientColor=#F78E04;gradientDirection=north;fillColor=#D05C17;strokeColor=#ffffff;dashed=0;verticalLabelPosition=bottom;verticalAlign=top;align=center;html=1;fontSize=12;fontStyle=0;aspect=fixed;shape=mxgraph.aws4.resourceIcon;resIcon=mxgraph.aws4.lambda;" parent="ZJu1gmb1K3_EzXzDdYMx-8" vertex="1">
          <mxGeometry x="560" y="320" width="40" height="40" as="geometry" />
        </mxCell>
        <mxCell id="ZJu1gmb1K3_EzXzDdYMx-12" value="" style="sketch=0;points=[[0,0,0],[0.25,0,0],[0.5,0,0],[0.75,0,0],[1,0,0],[0,1,0],[0.25,1,0],[0.5,1,0],[0.75,1,0],[1,1,0],[0,0.25,0],[0,0.5,0],[0,0.75,0],[1,0.25,0],[1,0.5,0],[1,0.75,0]];outlineConnect=0;fontColor=#232F3E;gradientColor=#F78E04;gradientDirection=north;fillColor=#D05C17;strokeColor=#ffffff;dashed=0;verticalLabelPosition=bottom;verticalAlign=top;align=center;html=1;fontSize=12;fontStyle=0;aspect=fixed;shape=mxgraph.aws4.resourceIcon;resIcon=mxgraph.aws4.lambda;" parent="ZJu1gmb1K3_EzXzDdYMx-8" vertex="1">
          <mxGeometry x="690" y="370" width="40" height="40" as="geometry" />
        </mxCell>
        <mxCell id="ZJu1gmb1K3_EzXzDdYMx-13" value="" style="sketch=0;points=[[0,0,0],[0.25,0,0],[0.5,0,0],[0.75,0,0],[1,0,0],[0,1,0],[0.25,1,0],[0.5,1,0],[0.75,1,0],[1,1,0],[0,0.25,0],[0,0.5,0],[0,0.75,0],[1,0.25,0],[1,0.5,0],[1,0.75,0]];outlineConnect=0;fontColor=#232F3E;gradientColor=#F78E04;gradientDirection=north;fillColor=#D05C17;strokeColor=#ffffff;dashed=0;verticalLabelPosition=bottom;verticalAlign=top;align=center;html=1;fontSize=12;fontStyle=0;aspect=fixed;shape=mxgraph.aws4.resourceIcon;resIcon=mxgraph.aws4.lambda;" parent="ZJu1gmb1K3_EzXzDdYMx-8" vertex="1">
          <mxGeometry x="560" y="400" width="40" height="40" as="geometry" />
        </mxCell>
        <mxCell id="ZJu1gmb1K3_EzXzDdYMx-14" value="" style="sketch=0;points=[[0,0,0],[0.25,0,0],[0.5,0,0],[0.75,0,0],[1,0,0],[0,1,0],[0.25,1,0],[0.5,1,0],[0.75,1,0],[1,1,0],[0,0.25,0],[0,0.5,0],[0,0.75,0],[1,0.25,0],[1,0.5,0],[1,0.75,0]];outlineConnect=0;fontColor=#232F3E;gradientColor=#F78E04;gradientDirection=north;fillColor=#D05C17;strokeColor=#ffffff;dashed=0;verticalLabelPosition=bottom;verticalAlign=top;align=center;html=1;fontSize=12;fontStyle=0;aspect=fixed;shape=mxgraph.aws4.resourceIcon;resIcon=mxgraph.aws4.lambda;" parent="ZJu1gmb1K3_EzXzDdYMx-8" vertex="1">
          <mxGeometry x="690" y="450" width="40" height="40" as="geometry" />
        </mxCell>
        <mxCell id="ZJu1gmb1K3_EzXzDdYMx-15" value="" style="sketch=0;points=[[0,0,0],[0.25,0,0],[0.5,0,0],[0.75,0,0],[1,0,0],[0,1,0],[0.25,1,0],[0.5,1,0],[0.75,1,0],[1,1,0],[0,0.25,0],[0,0.5,0],[0,0.75,0],[1,0.25,0],[1,0.5,0],[1,0.75,0]];outlineConnect=0;fontColor=#232F3E;gradientColor=#F78E04;gradientDirection=north;fillColor=#D05C17;strokeColor=#ffffff;dashed=0;verticalLabelPosition=bottom;verticalAlign=top;align=center;html=1;fontSize=12;fontStyle=0;aspect=fixed;shape=mxgraph.aws4.resourceIcon;resIcon=mxgraph.aws4.lambda;" parent="ZJu1gmb1K3_EzXzDdYMx-8" vertex="1">
          <mxGeometry x="560" y="480" width="40" height="40" as="geometry" />
        </mxCell>
        <mxCell id="ZJu1gmb1K3_EzXzDdYMx-16" value="" style="sketch=0;points=[[0,0,0],[0.25,0,0],[0.5,0,0],[0.75,0,0],[1,0,0],[0,1,0],[0.25,1,0],[0.5,1,0],[0.75,1,0],[1,1,0],[0,0.25,0],[0,0.5,0],[0,0.75,0],[1,0.25,0],[1,0.5,0],[1,0.75,0]];outlineConnect=0;fontColor=#232F3E;gradientColor=#F78E04;gradientDirection=north;fillColor=#D05C17;strokeColor=#ffffff;dashed=0;verticalLabelPosition=bottom;verticalAlign=top;align=center;html=1;fontSize=12;fontStyle=0;aspect=fixed;shape=mxgraph.aws4.resourceIcon;resIcon=mxgraph.aws4.lambda;" parent="ZJu1gmb1K3_EzXzDdYMx-8" vertex="1">
          <mxGeometry x="690" y="530" width="40" height="40" as="geometry" />
        </mxCell>
        <mxCell id="ZJu1gmb1K3_EzXzDdYMx-17" value="" style="sketch=0;points=[[0,0,0],[0.25,0,0],[0.5,0,0],[0.75,0,0],[1,0,0],[0,1,0],[0.25,1,0],[0.5,1,0],[0.75,1,0],[1,1,0],[0,0.25,0],[0,0.5,0],[0,0.75,0],[1,0.25,0],[1,0.5,0],[1,0.75,0]];outlineConnect=0;fontColor=#232F3E;gradientColor=#F78E04;gradientDirection=north;fillColor=#D05C17;strokeColor=#ffffff;dashed=0;verticalLabelPosition=bottom;verticalAlign=top;align=center;html=1;fontSize=12;fontStyle=0;aspect=fixed;shape=mxgraph.aws4.resourceIcon;resIcon=mxgraph.aws4.lambda;" parent="ZJu1gmb1K3_EzXzDdYMx-8" vertex="1">
          <mxGeometry x="560" y="560" width="40" height="40" as="geometry" />
        </mxCell>
        <mxCell id="ZJu1gmb1K3_EzXzDdYMx-18" value="" style="sketch=0;points=[[0,0,0],[0.25,0,0],[0.5,0,0],[0.75,0,0],[1,0,0],[0,1,0],[0.25,1,0],[0.5,1,0],[0.75,1,0],[1,1,0],[0,0.25,0],[0,0.5,0],[0,0.75,0],[1,0.25,0],[1,0.5,0],[1,0.75,0]];outlineConnect=0;fontColor=#232F3E;gradientColor=#F78E04;gradientDirection=north;fillColor=#D05C17;strokeColor=#ffffff;dashed=0;verticalLabelPosition=bottom;verticalAlign=top;align=center;html=1;fontSize=12;fontStyle=0;aspect=fixed;shape=mxgraph.aws4.resourceIcon;resIcon=mxgraph.aws4.lambda;" parent="ZJu1gmb1K3_EzXzDdYMx-8" vertex="1">
          <mxGeometry x="690" y="610" width="40" height="40" as="geometry" />
        </mxCell>
        <mxCell id="ZJu1gmb1K3_EzXzDdYMx-42" value="facto-api-6-dev-facto-fetch-client-cases-lambda" style="text;html=1;strokeColor=none;fillColor=none;align=center;verticalAlign=middle;whiteSpace=wrap;rounded=0;" parent="ZJu1gmb1K3_EzXzDdYMx-8" vertex="1">
          <mxGeometry x="620" y="490" width="180" height="30" as="geometry" />
        </mxCell>
        <mxCell id="ZJu1gmb1K3_EzXzDdYMx-44" value="facto-api-9-dev-facto-fetch-all-clients-lambda" style="text;html=1;strokeColor=none;fillColor=none;align=center;verticalAlign=middle;whiteSpace=wrap;rounded=0;" parent="ZJu1gmb1K3_EzXzDdYMx-8" vertex="1">
          <mxGeometry x="505" y="600" width="160" height="30" as="geometry" />
        </mxCell>
        <mxCell id="ZJu1gmb1K3_EzXzDdYMx-46" value="facto-api-2-dev-facto-fetch-client-component-lambda" style="text;html=1;strokeColor=none;fillColor=none;align=center;verticalAlign=middle;whiteSpace=wrap;rounded=0;" parent="ZJu1gmb1K3_EzXzDdYMx-8" vertex="1">
          <mxGeometry x="620" y="330" width="180" height="30" as="geometry" />
        </mxCell>
        <mxCell id="ZJu1gmb1K3_EzXzDdYMx-47" value="facto-api-3-dev-facto-insert-cases-lambda" style="text;html=1;strokeColor=none;fillColor=none;align=center;verticalAlign=middle;whiteSpace=wrap;rounded=0;" parent="ZJu1gmb1K3_EzXzDdYMx-8" vertex="1">
          <mxGeometry x="505" y="360" width="160" height="30" as="geometry" />
        </mxCell>
        <mxCell id="ZJu1gmb1K3_EzXzDdYMx-48" value="facto-api-5-dev-facto-insert-users-lambda" style="text;html=1;strokeColor=none;fillColor=none;align=center;verticalAlign=middle;whiteSpace=wrap;rounded=0;" parent="ZJu1gmb1K3_EzXzDdYMx-8" vertex="1">
          <mxGeometry x="500" y="440" width="170" height="30" as="geometry" />
        </mxCell>
        <mxCell id="ZJu1gmb1K3_EzXzDdYMx-49" value="facto-api-4-dev-facto-insert-clients-lambda" style="text;html=1;strokeColor=none;fillColor=none;align=center;verticalAlign=middle;whiteSpace=wrap;rounded=0;" parent="ZJu1gmb1K3_EzXzDdYMx-8" vertex="1">
          <mxGeometry x="620" y="410" width="180" height="30" as="geometry" />
        </mxCell>
        <mxCell id="ZJu1gmb1K3_EzXzDdYMx-50" value="facto-api-1-dev-facto-login-lambda" style="text;html=1;strokeColor=none;fillColor=none;align=center;verticalAlign=middle;whiteSpace=wrap;rounded=0;" parent="ZJu1gmb1K3_EzXzDdYMx-8" vertex="1">
          <mxGeometry x="520" y="280" width="130" height="30" as="geometry" />
        </mxCell>
        <mxCell id="ZJu1gmb1K3_EzXzDdYMx-64" style="edgeStyle=orthogonalEdgeStyle;rounded=0;orthogonalLoop=1;jettySize=auto;html=1;exitX=0.5;exitY=0;exitDx=0;exitDy=0;exitPerimeter=0;entryX=0;entryY=0.5;entryDx=0;entryDy=0;entryPerimeter=0;" parent="ZJu1gmb1K3_EzXzDdYMx-8" source="2r4Qx-0JEMyAotbG9rfD-11" target="ZJu1gmb1K3_EzXzDdYMx-17" edge="1">
          <mxGeometry relative="1" as="geometry" />
        </mxCell>
        <mxCell id="ZJu1gmb1K3_EzXzDdYMx-65" style="edgeStyle=orthogonalEdgeStyle;rounded=0;orthogonalLoop=1;jettySize=auto;html=1;exitX=0.5;exitY=0;exitDx=0;exitDy=0;exitPerimeter=0;entryX=0;entryY=0.5;entryDx=0;entryDy=0;entryPerimeter=0;" parent="ZJu1gmb1K3_EzXzDdYMx-8" source="2r4Qx-0JEMyAotbG9rfD-11" target="ZJu1gmb1K3_EzXzDdYMx-15" edge="1">
          <mxGeometry relative="1" as="geometry" />
        </mxCell>
        <mxCell id="ZJu1gmb1K3_EzXzDdYMx-70" style="edgeStyle=orthogonalEdgeStyle;rounded=0;orthogonalLoop=1;jettySize=auto;html=1;exitX=0.5;exitY=0;exitDx=0;exitDy=0;exitPerimeter=0;entryX=0;entryY=0.5;entryDx=0;entryDy=0;entryPerimeter=0;" parent="ZJu1gmb1K3_EzXzDdYMx-8" source="2r4Qx-0JEMyAotbG9rfD-11" target="ZJu1gmb1K3_EzXzDdYMx-13" edge="1">
          <mxGeometry relative="1" as="geometry" />
        </mxCell>
        <mxCell id="ZJu1gmb1K3_EzXzDdYMx-78" style="edgeStyle=orthogonalEdgeStyle;rounded=0;orthogonalLoop=1;jettySize=auto;html=1;exitX=0.5;exitY=0;exitDx=0;exitDy=0;exitPerimeter=0;entryX=0;entryY=0.5;entryDx=0;entryDy=0;entryPerimeter=0;" parent="ZJu1gmb1K3_EzXzDdYMx-8" source="2r4Qx-0JEMyAotbG9rfD-11" target="ZJu1gmb1K3_EzXzDdYMx-11" edge="1">
          <mxGeometry relative="1" as="geometry" />
        </mxCell>
        <mxCell id="ZJu1gmb1K3_EzXzDdYMx-79" style="edgeStyle=orthogonalEdgeStyle;rounded=0;orthogonalLoop=1;jettySize=auto;html=1;exitX=0.5;exitY=0;exitDx=0;exitDy=0;exitPerimeter=0;entryX=0;entryY=0.5;entryDx=0;entryDy=0;entryPerimeter=0;" parent="ZJu1gmb1K3_EzXzDdYMx-8" source="2r4Qx-0JEMyAotbG9rfD-11" target="ZJu1gmb1K3_EzXzDdYMx-9" edge="1">
          <mxGeometry relative="1" as="geometry" />
        </mxCell>
        <mxCell id="ZJu1gmb1K3_EzXzDdYMx-91" style="edgeStyle=orthogonalEdgeStyle;rounded=0;orthogonalLoop=1;jettySize=auto;html=1;exitX=0.5;exitY=0;exitDx=0;exitDy=0;exitPerimeter=0;entryX=0;entryY=0.5;entryDx=0;entryDy=0;entryPerimeter=0;" parent="ZJu1gmb1K3_EzXzDdYMx-8" source="2r4Qx-0JEMyAotbG9rfD-11" target="ZJu1gmb1K3_EzXzDdYMx-16" edge="1">
          <mxGeometry relative="1" as="geometry" />
        </mxCell>
        <mxCell id="ZJu1gmb1K3_EzXzDdYMx-93" style="edgeStyle=orthogonalEdgeStyle;rounded=0;orthogonalLoop=1;jettySize=auto;html=1;exitX=0.5;exitY=0;exitDx=0;exitDy=0;exitPerimeter=0;entryX=0;entryY=0.5;entryDx=0;entryDy=0;entryPerimeter=0;" parent="ZJu1gmb1K3_EzXzDdYMx-8" source="2r4Qx-0JEMyAotbG9rfD-11" target="ZJu1gmb1K3_EzXzDdYMx-14" edge="1">
          <mxGeometry relative="1" as="geometry" />
        </mxCell>
        <mxCell id="ZJu1gmb1K3_EzXzDdYMx-94" style="edgeStyle=orthogonalEdgeStyle;rounded=0;orthogonalLoop=1;jettySize=auto;html=1;exitX=0.5;exitY=0;exitDx=0;exitDy=0;exitPerimeter=0;entryX=0;entryY=0.5;entryDx=0;entryDy=0;entryPerimeter=0;" parent="ZJu1gmb1K3_EzXzDdYMx-8" source="2r4Qx-0JEMyAotbG9rfD-11" target="ZJu1gmb1K3_EzXzDdYMx-12" edge="1">
          <mxGeometry relative="1" as="geometry" />
        </mxCell>
        <mxCell id="ZJu1gmb1K3_EzXzDdYMx-95" style="edgeStyle=orthogonalEdgeStyle;rounded=0;orthogonalLoop=1;jettySize=auto;html=1;exitX=0.5;exitY=0;exitDx=0;exitDy=0;exitPerimeter=0;entryX=0;entryY=0.5;entryDx=0;entryDy=0;entryPerimeter=0;" parent="ZJu1gmb1K3_EzXzDdYMx-8" source="2r4Qx-0JEMyAotbG9rfD-11" target="ZJu1gmb1K3_EzXzDdYMx-10" edge="1">
          <mxGeometry relative="1" as="geometry" />
        </mxCell>
        <mxCell id="ZJu1gmb1K3_EzXzDdYMx-102" value="Lambda-API" style="swimlane;" parent="ZJu1gmb1K3_EzXzDdYMx-8" vertex="1">
          <mxGeometry x="360" y="180" width="460" height="1070" as="geometry" />
        </mxCell>
        <mxCell id="2r4Qx-0JEMyAotbG9rfD-3" style="edgeStyle=orthogonalEdgeStyle;rounded=0;orthogonalLoop=1;jettySize=auto;html=1;exitX=1;exitY=0.5;exitDx=0;exitDy=0;exitPerimeter=0;entryX=0;entryY=0.5;entryDx=0;entryDy=0;entryPerimeter=0;" parent="ZJu1gmb1K3_EzXzDdYMx-102" source="2r4Qx-0JEMyAotbG9rfD-1" target="2r4Qx-0JEMyAotbG9rfD-11" edge="1">
          <mxGeometry relative="1" as="geometry">
            <mxPoint x="35" y="480" as="targetPoint" />
          </mxGeometry>
        </mxCell>
        <mxCell id="5oaeEAeBF5l6Jmh7AZM0-6" style="edgeStyle=orthogonalEdgeStyle;rounded=0;orthogonalLoop=1;jettySize=auto;html=1;exitX=0.5;exitY=1;exitDx=0;exitDy=0;exitPerimeter=0;entryX=0;entryY=0.5;entryDx=0;entryDy=0;entryPerimeter=0;" edge="1" parent="ZJu1gmb1K3_EzXzDdYMx-102" source="2r4Qx-0JEMyAotbG9rfD-11" target="ZJu1gmb1K3_EzXzDdYMx-23">
          <mxGeometry relative="1" as="geometry" />
        </mxCell>
        <mxCell id="5oaeEAeBF5l6Jmh7AZM0-7" style="edgeStyle=orthogonalEdgeStyle;rounded=0;orthogonalLoop=1;jettySize=auto;html=1;exitX=0.5;exitY=1;exitDx=0;exitDy=0;exitPerimeter=0;entryX=0;entryY=0.5;entryDx=0;entryDy=0;entryPerimeter=0;" edge="1" parent="ZJu1gmb1K3_EzXzDdYMx-102" source="2r4Qx-0JEMyAotbG9rfD-11" target="5oaeEAeBF5l6Jmh7AZM0-2">
          <mxGeometry relative="1" as="geometry" />
        </mxCell>
        <mxCell id="2r4Qx-0JEMyAotbG9rfD-11" value="" style="sketch=0;points=[[0,0,0],[0.25,0,0],[0.5,0,0],[0.75,0,0],[1,0,0],[0,1,0],[0.25,1,0],[0.5,1,0],[0.75,1,0],[1,1,0],[0,0.25,0],[0,0.5,0],[0,0.75,0],[1,0.25,0],[1,0.5,0],[1,0.75,0]];outlineConnect=0;fontColor=#232F3E;gradientColor=#FF4F8B;gradientDirection=north;fillColor=#BC1356;strokeColor=#ffffff;dashed=0;verticalLabelPosition=bottom;verticalAlign=top;align=center;html=1;fontSize=12;fontStyle=0;aspect=fixed;shape=mxgraph.aws4.resourceIcon;resIcon=mxgraph.aws4.api_gateway;" parent="ZJu1gmb1K3_EzXzDdYMx-102" vertex="1">
          <mxGeometry x="40" y="500" width="40" height="40" as="geometry" />
        </mxCell>
        <mxCell id="ZJu1gmb1K3_EzXzDdYMx-43" value="facto-api-7-dev-facto-fetch-individual-case-lambda" style="text;html=1;strokeColor=none;fillColor=none;align=center;verticalAlign=middle;whiteSpace=wrap;rounded=0;" parent="ZJu1gmb1K3_EzXzDdYMx-102" vertex="1">
          <mxGeometry x="120" y="340" width="190" height="30" as="geometry" />
        </mxCell>
        <mxCell id="ZJu1gmb1K3_EzXzDdYMx-45" value="facto-api-8-dev-facto-update-cases-lambda" style="text;html=1;strokeColor=none;fillColor=none;align=center;verticalAlign=middle;whiteSpace=wrap;rounded=0;" parent="ZJu1gmb1K3_EzXzDdYMx-102" vertex="1">
          <mxGeometry x="260" y="390" width="180" height="30" as="geometry" />
        </mxCell>
        <mxCell id="ZJu1gmb1K3_EzXzDdYMx-38" value="facto-api-11-dev-facto-get-bulk-upload-url-lambda" style="text;html=1;strokeColor=none;fillColor=none;align=center;verticalAlign=middle;whiteSpace=wrap;rounded=0;" parent="ZJu1gmb1K3_EzXzDdYMx-102" vertex="1">
          <mxGeometry x="145" y="540" width="160" height="30" as="geometry" />
        </mxCell>
        <mxCell id="ZJu1gmb1K3_EzXzDdYMx-20" value="" style="sketch=0;points=[[0,0,0],[0.25,0,0],[0.5,0,0],[0.75,0,0],[1,0,0],[0,1,0],[0.25,1,0],[0.5,1,0],[0.75,1,0],[1,1,0],[0,0.25,0],[0,0.5,0],[0,0.75,0],[1,0.25,0],[1,0.5,0],[1,0.75,0]];outlineConnect=0;fontColor=#232F3E;gradientColor=#F78E04;gradientDirection=north;fillColor=#D05C17;strokeColor=#ffffff;dashed=0;verticalLabelPosition=bottom;verticalAlign=top;align=center;html=1;fontSize=12;fontStyle=0;aspect=fixed;shape=mxgraph.aws4.resourceIcon;resIcon=mxgraph.aws4.lambda;" parent="ZJu1gmb1K3_EzXzDdYMx-102" vertex="1">
          <mxGeometry x="330" y="560" width="40" height="40" as="geometry" />
        </mxCell>
        <mxCell id="ZJu1gmb1K3_EzXzDdYMx-21" value="" style="sketch=0;points=[[0,0,0],[0.25,0,0],[0.5,0,0],[0.75,0,0],[1,0,0],[0,1,0],[0.25,1,0],[0.5,1,0],[0.75,1,0],[1,1,0],[0,0.25,0],[0,0.5,0],[0,0.75,0],[1,0.25,0],[1,0.5,0],[1,0.75,0]];outlineConnect=0;fontColor=#232F3E;gradientColor=#F78E04;gradientDirection=north;fillColor=#D05C17;strokeColor=#ffffff;dashed=0;verticalLabelPosition=bottom;verticalAlign=top;align=center;html=1;fontSize=12;fontStyle=0;aspect=fixed;shape=mxgraph.aws4.resourceIcon;resIcon=mxgraph.aws4.lambda;" parent="ZJu1gmb1K3_EzXzDdYMx-102" vertex="1">
          <mxGeometry x="200" y="590" width="40" height="40" as="geometry" />
        </mxCell>
        <mxCell id="ZJu1gmb1K3_EzXzDdYMx-22" value="" style="sketch=0;points=[[0,0,0],[0.25,0,0],[0.5,0,0],[0.75,0,0],[1,0,0],[0,1,0],[0.25,1,0],[0.5,1,0],[0.75,1,0],[1,1,0],[0,0.25,0],[0,0.5,0],[0,0.75,0],[1,0.25,0],[1,0.5,0],[1,0.75,0]];outlineConnect=0;fontColor=#232F3E;gradientColor=#F78E04;gradientDirection=north;fillColor=#D05C17;strokeColor=#ffffff;dashed=0;verticalLabelPosition=bottom;verticalAlign=top;align=center;html=1;fontSize=12;fontStyle=0;aspect=fixed;shape=mxgraph.aws4.resourceIcon;resIcon=mxgraph.aws4.lambda;" parent="ZJu1gmb1K3_EzXzDdYMx-102" vertex="1">
          <mxGeometry x="330" y="880" width="40" height="40" as="geometry" />
        </mxCell>
        <mxCell id="ZJu1gmb1K3_EzXzDdYMx-23" value="" style="sketch=0;points=[[0,0,0],[0.25,0,0],[0.5,0,0],[0.75,0,0],[1,0,0],[0,1,0],[0.25,1,0],[0.5,1,0],[0.75,1,0],[1,1,0],[0,0.25,0],[0,0.5,0],[0,0.75,0],[1,0.25,0],[1,0.5,0],[1,0.75,0]];outlineConnect=0;fontColor=#232F3E;gradientColor=#F78E04;gradientDirection=north;fillColor=#D05C17;strokeColor=#ffffff;dashed=0;verticalLabelPosition=bottom;verticalAlign=top;align=center;html=1;fontSize=12;fontStyle=0;aspect=fixed;shape=mxgraph.aws4.resourceIcon;resIcon=mxgraph.aws4.lambda;" parent="ZJu1gmb1K3_EzXzDdYMx-102" vertex="1">
          <mxGeometry x="200" y="910" width="40" height="40" as="geometry" />
        </mxCell>
        <mxCell id="ZJu1gmb1K3_EzXzDdYMx-24" value="" style="sketch=0;points=[[0,0,0],[0.25,0,0],[0.5,0,0],[0.75,0,0],[1,0,0],[0,1,0],[0.25,1,0],[0.5,1,0],[0.75,1,0],[1,1,0],[0,0.25,0],[0,0.5,0],[0,0.75,0],[1,0.25,0],[1,0.5,0],[1,0.75,0]];outlineConnect=0;fontColor=#232F3E;gradientColor=#F78E04;gradientDirection=north;fillColor=#D05C17;strokeColor=#ffffff;dashed=0;verticalLabelPosition=bottom;verticalAlign=top;align=center;html=1;fontSize=12;fontStyle=0;aspect=fixed;shape=mxgraph.aws4.resourceIcon;resIcon=mxgraph.aws4.lambda;" parent="ZJu1gmb1K3_EzXzDdYMx-102" vertex="1">
          <mxGeometry x="330" y="640" width="40" height="40" as="geometry" />
        </mxCell>
        <mxCell id="ZJu1gmb1K3_EzXzDdYMx-25" value="" style="sketch=0;points=[[0,0,0],[0.25,0,0],[0.5,0,0],[0.75,0,0],[1,0,0],[0,1,0],[0.25,1,0],[0.5,1,0],[0.75,1,0],[1,1,0],[0,0.25,0],[0,0.5,0],[0,0.75,0],[1,0.25,0],[1,0.5,0],[1,0.75,0]];outlineConnect=0;fontColor=#232F3E;gradientColor=#F78E04;gradientDirection=north;fillColor=#D05C17;strokeColor=#ffffff;dashed=0;verticalLabelPosition=bottom;verticalAlign=top;align=center;html=1;fontSize=12;fontStyle=0;aspect=fixed;shape=mxgraph.aws4.resourceIcon;resIcon=mxgraph.aws4.lambda;" parent="ZJu1gmb1K3_EzXzDdYMx-102" vertex="1">
          <mxGeometry x="200" y="670" width="40" height="40" as="geometry" />
        </mxCell>
        <mxCell id="ZJu1gmb1K3_EzXzDdYMx-26" value="" style="sketch=0;points=[[0,0,0],[0.25,0,0],[0.5,0,0],[0.75,0,0],[1,0,0],[0,1,0],[0.25,1,0],[0.5,1,0],[0.75,1,0],[1,1,0],[0,0.25,0],[0,0.5,0],[0,0.75,0],[1,0.25,0],[1,0.5,0],[1,0.75,0]];outlineConnect=0;fontColor=#232F3E;gradientColor=#F78E04;gradientDirection=north;fillColor=#D05C17;strokeColor=#ffffff;dashed=0;verticalLabelPosition=bottom;verticalAlign=top;align=center;html=1;fontSize=12;fontStyle=0;aspect=fixed;shape=mxgraph.aws4.resourceIcon;resIcon=mxgraph.aws4.lambda;" parent="ZJu1gmb1K3_EzXzDdYMx-102" vertex="1">
          <mxGeometry x="330" y="720" width="40" height="40" as="geometry" />
        </mxCell>
        <mxCell id="ZJu1gmb1K3_EzXzDdYMx-27" value="" style="sketch=0;points=[[0,0,0],[0.25,0,0],[0.5,0,0],[0.75,0,0],[1,0,0],[0,1,0],[0.25,1,0],[0.5,1,0],[0.75,1,0],[1,1,0],[0,0.25,0],[0,0.5,0],[0,0.75,0],[1,0.25,0],[1,0.5,0],[1,0.75,0]];outlineConnect=0;fontColor=#232F3E;gradientColor=#F78E04;gradientDirection=north;fillColor=#D05C17;strokeColor=#ffffff;dashed=0;verticalLabelPosition=bottom;verticalAlign=top;align=center;html=1;fontSize=12;fontStyle=0;aspect=fixed;shape=mxgraph.aws4.resourceIcon;resIcon=mxgraph.aws4.lambda;" parent="ZJu1gmb1K3_EzXzDdYMx-102" vertex="1">
          <mxGeometry x="200" y="750" width="40" height="40" as="geometry" />
        </mxCell>
        <mxCell id="ZJu1gmb1K3_EzXzDdYMx-28" value="" style="sketch=0;points=[[0,0,0],[0.25,0,0],[0.5,0,0],[0.75,0,0],[1,0,0],[0,1,0],[0.25,1,0],[0.5,1,0],[0.75,1,0],[1,1,0],[0,0.25,0],[0,0.5,0],[0,0.75,0],[1,0.25,0],[1,0.5,0],[1,0.75,0]];outlineConnect=0;fontColor=#232F3E;gradientColor=#F78E04;gradientDirection=north;fillColor=#D05C17;strokeColor=#ffffff;dashed=0;verticalLabelPosition=bottom;verticalAlign=top;align=center;html=1;fontSize=12;fontStyle=0;aspect=fixed;shape=mxgraph.aws4.resourceIcon;resIcon=mxgraph.aws4.lambda;" parent="ZJu1gmb1K3_EzXzDdYMx-102" vertex="1">
          <mxGeometry x="330" y="800" width="40" height="40" as="geometry" />
        </mxCell>
        <mxCell id="ZJu1gmb1K3_EzXzDdYMx-29" value="" style="sketch=0;points=[[0,0,0],[0.25,0,0],[0.5,0,0],[0.75,0,0],[1,0,0],[0,1,0],[0.25,1,0],[0.5,1,0],[0.75,1,0],[1,1,0],[0,0.25,0],[0,0.5,0],[0,0.75,0],[1,0.25,0],[1,0.5,0],[1,0.75,0]];outlineConnect=0;fontColor=#232F3E;gradientColor=#F78E04;gradientDirection=north;fillColor=#D05C17;strokeColor=#ffffff;dashed=0;verticalLabelPosition=bottom;verticalAlign=top;align=center;html=1;fontSize=12;fontStyle=0;aspect=fixed;shape=mxgraph.aws4.resourceIcon;resIcon=mxgraph.aws4.lambda;" parent="ZJu1gmb1K3_EzXzDdYMx-102" vertex="1">
          <mxGeometry x="200" y="830" width="40" height="40" as="geometry" />
        </mxCell>
        <mxCell id="ZJu1gmb1K3_EzXzDdYMx-32" value="facto-api-19-dev-facto-fetch-ops-user-component-lambda" style="text;html=1;strokeColor=none;fillColor=none;align=center;verticalAlign=middle;whiteSpace=wrap;rounded=0;" parent="ZJu1gmb1K3_EzXzDdYMx-102" vertex="1">
          <mxGeometry x="120" y="870" width="200" height="30" as="geometry" />
        </mxCell>
        <mxCell id="ZJu1gmb1K3_EzXzDdYMx-33" value="facto-api-18-dev-facto-delete-client-lambda" style="text;html=1;strokeColor=none;fillColor=none;align=center;verticalAlign=middle;whiteSpace=wrap;rounded=0;" parent="ZJu1gmb1K3_EzXzDdYMx-102" vertex="1">
          <mxGeometry x="270" y="840" width="170" height="30" as="geometry" />
        </mxCell>
        <mxCell id="ZJu1gmb1K3_EzXzDdYMx-34" value="facto-api-14-dev-facto-fetch-individual-client-lambda" style="text;html=1;strokeColor=none;fillColor=none;align=center;verticalAlign=middle;whiteSpace=wrap;rounded=0;" parent="ZJu1gmb1K3_EzXzDdYMx-102" vertex="1">
          <mxGeometry x="250" y="680" width="200" height="30" as="geometry" />
        </mxCell>
        <mxCell id="ZJu1gmb1K3_EzXzDdYMx-36" value="facto-api-17-dev-facto-delete-user-lambda" style="text;html=1;strokeColor=none;fillColor=none;align=center;verticalAlign=middle;whiteSpace=wrap;rounded=0;" parent="ZJu1gmb1K3_EzXzDdYMx-102" vertex="1">
          <mxGeometry x="150" y="790" width="170" height="30" as="geometry" />
        </mxCell>
        <mxCell id="ZJu1gmb1K3_EzXzDdYMx-37" value="facto-api-16-dev-facto-update-client-lambda" style="text;html=1;strokeColor=none;fillColor=none;align=center;verticalAlign=middle;whiteSpace=wrap;rounded=0;" parent="ZJu1gmb1K3_EzXzDdYMx-102" vertex="1">
          <mxGeometry x="280" y="760" width="170" height="30" as="geometry" />
        </mxCell>
        <mxCell id="ZJu1gmb1K3_EzXzDdYMx-103" style="edgeStyle=orthogonalEdgeStyle;rounded=0;orthogonalLoop=1;jettySize=auto;html=1;exitX=0.5;exitY=1;exitDx=0;exitDy=0;exitPerimeter=0;entryX=0;entryY=0.5;entryDx=0;entryDy=0;entryPerimeter=0;" parent="ZJu1gmb1K3_EzXzDdYMx-102" source="2r4Qx-0JEMyAotbG9rfD-11" target="ZJu1gmb1K3_EzXzDdYMx-20" edge="1">
          <mxGeometry relative="1" as="geometry" />
        </mxCell>
        <mxCell id="ZJu1gmb1K3_EzXzDdYMx-41" value="facto-api-12-dev-facto-download-document-lambda" style="text;html=1;strokeColor=none;fillColor=none;align=center;verticalAlign=middle;whiteSpace=wrap;rounded=0;" parent="ZJu1gmb1K3_EzXzDdYMx-102" vertex="1">
          <mxGeometry x="250" y="600" width="190" height="30" as="geometry" />
        </mxCell>
        <mxCell id="ZJu1gmb1K3_EzXzDdYMx-76" style="edgeStyle=orthogonalEdgeStyle;rounded=0;orthogonalLoop=1;jettySize=auto;html=1;exitX=0.5;exitY=1;exitDx=0;exitDy=0;exitPerimeter=0;entryX=0;entryY=0.5;entryDx=0;entryDy=0;entryPerimeter=0;" parent="ZJu1gmb1K3_EzXzDdYMx-102" source="2r4Qx-0JEMyAotbG9rfD-11" target="ZJu1gmb1K3_EzXzDdYMx-21" edge="1">
          <mxGeometry relative="1" as="geometry" />
        </mxCell>
        <mxCell id="ZJu1gmb1K3_EzXzDdYMx-40" value="facto-api-13-dev-facto-fetch-individual-user-lambda" style="text;html=1;strokeColor=none;fillColor=none;align=center;verticalAlign=middle;whiteSpace=wrap;rounded=0;" parent="ZJu1gmb1K3_EzXzDdYMx-102" vertex="1">
          <mxGeometry x="125" y="630" width="180" height="30" as="geometry" />
        </mxCell>
        <mxCell id="ZJu1gmb1K3_EzXzDdYMx-83" style="edgeStyle=orthogonalEdgeStyle;rounded=0;orthogonalLoop=1;jettySize=auto;html=1;exitX=0.5;exitY=1;exitDx=0;exitDy=0;exitPerimeter=0;entryX=0;entryY=0.5;entryDx=0;entryDy=0;entryPerimeter=0;" parent="ZJu1gmb1K3_EzXzDdYMx-102" source="2r4Qx-0JEMyAotbG9rfD-11" target="ZJu1gmb1K3_EzXzDdYMx-22" edge="1">
          <mxGeometry relative="1" as="geometry" />
        </mxCell>
        <mxCell id="ZJu1gmb1K3_EzXzDdYMx-35" value="facto-api-15-dev-facto-update-user-lambda" style="text;html=1;strokeColor=none;fillColor=none;align=center;verticalAlign=middle;whiteSpace=wrap;rounded=0;" parent="ZJu1gmb1K3_EzXzDdYMx-102" vertex="1">
          <mxGeometry x="130" y="710" width="180" height="30" as="geometry" />
        </mxCell>
        <mxCell id="ZJu1gmb1K3_EzXzDdYMx-30" value="facto-api-20-dev-facto-fetch-cases-status-count-lambda" style="text;html=1;strokeColor=none;fillColor=none;align=center;verticalAlign=middle;whiteSpace=wrap;rounded=0;" parent="ZJu1gmb1K3_EzXzDdYMx-102" vertex="1">
          <mxGeometry x="240" y="920" width="220" height="30" as="geometry" />
        </mxCell>
        <mxCell id="ZJu1gmb1K3_EzXzDdYMx-101" style="edgeStyle=orthogonalEdgeStyle;rounded=0;orthogonalLoop=1;jettySize=auto;html=1;exitX=0.5;exitY=1;exitDx=0;exitDy=0;exitPerimeter=0;entryX=0;entryY=0.5;entryDx=0;entryDy=0;entryPerimeter=0;" parent="ZJu1gmb1K3_EzXzDdYMx-102" source="2r4Qx-0JEMyAotbG9rfD-11" target="ZJu1gmb1K3_EzXzDdYMx-24" edge="1">
          <mxGeometry relative="1" as="geometry" />
        </mxCell>
        <mxCell id="ZJu1gmb1K3_EzXzDdYMx-31" value="facto-api-21-dev-facto-fetch-users-by-sup-id-lambda" style="text;html=1;strokeColor=none;fillColor=none;align=center;verticalAlign=middle;whiteSpace=wrap;rounded=0;" parent="ZJu1gmb1K3_EzXzDdYMx-102" vertex="1">
          <mxGeometry x="120" y="950" width="200" height="30" as="geometry" />
        </mxCell>
        <mxCell id="ZJu1gmb1K3_EzXzDdYMx-77" style="edgeStyle=orthogonalEdgeStyle;rounded=0;orthogonalLoop=1;jettySize=auto;html=1;exitX=0.5;exitY=1;exitDx=0;exitDy=0;exitPerimeter=0;entryX=0;entryY=0.5;entryDx=0;entryDy=0;entryPerimeter=0;" parent="ZJu1gmb1K3_EzXzDdYMx-102" source="2r4Qx-0JEMyAotbG9rfD-11" target="ZJu1gmb1K3_EzXzDdYMx-25" edge="1">
          <mxGeometry relative="1" as="geometry" />
        </mxCell>
        <mxCell id="5oaeEAeBF5l6Jmh7AZM0-3" value="facto-api-22-dev-facto-fetch-client-by-userId-lambda" style="text;html=1;strokeColor=none;fillColor=none;align=center;verticalAlign=middle;whiteSpace=wrap;rounded=0;" vertex="1" parent="ZJu1gmb1K3_EzXzDdYMx-102">
          <mxGeometry x="240" y="1000" width="210" height="30" as="geometry" />
        </mxCell>
        <mxCell id="5oaeEAeBF5l6Jmh7AZM0-2" value="" style="sketch=0;points=[[0,0,0],[0.25,0,0],[0.5,0,0],[0.75,0,0],[1,0,0],[0,1,0],[0.25,1,0],[0.5,1,0],[0.75,1,0],[1,1,0],[0,0.25,0],[0,0.5,0],[0,0.75,0],[1,0.25,0],[1,0.5,0],[1,0.75,0]];outlineConnect=0;fontColor=#232F3E;gradientColor=#F78E04;gradientDirection=north;fillColor=#D05C17;strokeColor=#ffffff;dashed=0;verticalLabelPosition=bottom;verticalAlign=top;align=center;html=1;fontSize=12;fontStyle=0;aspect=fixed;shape=mxgraph.aws4.resourceIcon;resIcon=mxgraph.aws4.lambda;" vertex="1" parent="ZJu1gmb1K3_EzXzDdYMx-102">
          <mxGeometry x="330" y="960" width="40" height="40" as="geometry" />
        </mxCell>
        <mxCell id="ZJu1gmb1K3_EzXzDdYMx-85" style="edgeStyle=orthogonalEdgeStyle;rounded=0;orthogonalLoop=1;jettySize=auto;html=1;exitX=0.5;exitY=1;exitDx=0;exitDy=0;exitPerimeter=0;entryX=0;entryY=0.5;entryDx=0;entryDy=0;entryPerimeter=0;" parent="ZJu1gmb1K3_EzXzDdYMx-102" source="2r4Qx-0JEMyAotbG9rfD-11" target="ZJu1gmb1K3_EzXzDdYMx-26" edge="1">
          <mxGeometry relative="1" as="geometry" />
        </mxCell>
        <mxCell id="ZJu1gmb1K3_EzXzDdYMx-80" style="edgeStyle=orthogonalEdgeStyle;rounded=0;orthogonalLoop=1;jettySize=auto;html=1;exitX=0.5;exitY=1;exitDx=0;exitDy=0;exitPerimeter=0;entryX=0;entryY=0.5;entryDx=0;entryDy=0;entryPerimeter=0;" parent="ZJu1gmb1K3_EzXzDdYMx-102" source="2r4Qx-0JEMyAotbG9rfD-11" target="ZJu1gmb1K3_EzXzDdYMx-27" edge="1">
          <mxGeometry relative="1" as="geometry" />
        </mxCell>
        <mxCell id="ZJu1gmb1K3_EzXzDdYMx-84" style="edgeStyle=orthogonalEdgeStyle;rounded=0;orthogonalLoop=1;jettySize=auto;html=1;exitX=0.5;exitY=1;exitDx=0;exitDy=0;exitPerimeter=0;entryX=0;entryY=0.5;entryDx=0;entryDy=0;entryPerimeter=0;" parent="ZJu1gmb1K3_EzXzDdYMx-102" source="2r4Qx-0JEMyAotbG9rfD-11" target="ZJu1gmb1K3_EzXzDdYMx-28" edge="1">
          <mxGeometry relative="1" as="geometry" />
        </mxCell>
        <mxCell id="ZJu1gmb1K3_EzXzDdYMx-81" style="edgeStyle=orthogonalEdgeStyle;rounded=0;orthogonalLoop=1;jettySize=auto;html=1;exitX=0.5;exitY=1;exitDx=0;exitDy=0;exitPerimeter=0;entryX=0;entryY=0.5;entryDx=0;entryDy=0;entryPerimeter=0;" parent="ZJu1gmb1K3_EzXzDdYMx-102" source="2r4Qx-0JEMyAotbG9rfD-11" target="ZJu1gmb1K3_EzXzDdYMx-29" edge="1">
          <mxGeometry relative="1" as="geometry" />
        </mxCell>
        <mxCell id="ZJu1gmb1K3_EzXzDdYMx-129" style="edgeStyle=orthogonalEdgeStyle;rounded=0;orthogonalLoop=1;jettySize=auto;html=1;exitX=1;exitY=0.5;exitDx=0;exitDy=0;exitPerimeter=0;" parent="ZJu1gmb1K3_EzXzDdYMx-102" edge="1">
          <mxGeometry relative="1" as="geometry">
            <mxPoint x="200" y="520" as="targetPoint" />
            <mxPoint x="80" y="520" as="sourcePoint" />
          </mxGeometry>
        </mxCell>
        <mxCell id="ZJu1gmb1K3_EzXzDdYMx-19" value="" style="sketch=0;points=[[0,0,0],[0.25,0,0],[0.5,0,0],[0.75,0,0],[1,0,0],[0,1,0],[0.25,1,0],[0.5,1,0],[0.75,1,0],[1,1,0],[0,0.25,0],[0,0.5,0],[0,0.75,0],[1,0.25,0],[1,0.5,0],[1,0.75,0]];outlineConnect=0;fontColor=#232F3E;gradientColor=#F78E04;gradientDirection=north;fillColor=#D05C17;strokeColor=#ffffff;dashed=0;verticalLabelPosition=bottom;verticalAlign=top;align=center;html=1;fontSize=12;fontStyle=0;aspect=fixed;shape=mxgraph.aws4.resourceIcon;resIcon=mxgraph.aws4.lambda;" parent="ZJu1gmb1K3_EzXzDdYMx-102" vertex="1">
          <mxGeometry x="200" y="500" width="40" height="40" as="geometry" />
        </mxCell>
        <mxCell id="5oaeEAeBF5l6Jmh7AZM0-9" value="facto-api-10-dev-facto-fetch-all-users-lambda" style="text;html=1;strokeColor=none;fillColor=none;align=center;verticalAlign=middle;whiteSpace=wrap;rounded=0;" vertex="1" parent="ZJu1gmb1K3_EzXzDdYMx-102">
          <mxGeometry x="290" y="480" width="160" height="30" as="geometry" />
        </mxCell>
        <mxCell id="ZJu1gmb1K3_EzXzDdYMx-105" value="facto-frontend" style="text;html=1;strokeColor=none;fillColor=none;align=center;verticalAlign=middle;whiteSpace=wrap;rounded=0;" parent="ZJu1gmb1K3_EzXzDdYMx-8" vertex="1">
          <mxGeometry x="240" y="720" width="130" height="30" as="geometry" />
        </mxCell>
        <mxCell id="ZJu1gmb1K3_EzXzDdYMx-130" style="edgeStyle=orthogonalEdgeStyle;rounded=0;orthogonalLoop=1;jettySize=auto;html=1;exitX=0.5;exitY=0;exitDx=0;exitDy=0;exitPerimeter=0;entryX=0;entryY=0.5;entryDx=0;entryDy=0;entryPerimeter=0;" parent="ZJu1gmb1K3_EzXzDdYMx-8" edge="1">
          <mxGeometry relative="1" as="geometry">
            <mxPoint x="420" y="640" as="sourcePoint" />
            <mxPoint x="690" y="630" as="targetPoint" />
            <Array as="points">
              <mxPoint x="420" y="630" />
            </Array>
          </mxGeometry>
        </mxCell>
        <object label="Additional Services" id="ZJu1gmb1K3_EzXzDdYMx-106">
          <mxCell parent="0" />
        </object>
        <mxCell id="ZJu1gmb1K3_EzXzDdYMx-114" style="edgeStyle=orthogonalEdgeStyle;rounded=0;orthogonalLoop=1;jettySize=auto;html=1;exitX=1;exitY=0.5;exitDx=0;exitDy=0;exitPerimeter=0;entryX=0;entryY=0.5;entryDx=0;entryDy=0;entryPerimeter=0;" parent="ZJu1gmb1K3_EzXzDdYMx-106" source="ZJu1gmb1K3_EzXzDdYMx-107" target="ZJu1gmb1K3_EzXzDdYMx-108" edge="1">
          <mxGeometry relative="1" as="geometry" />
        </mxCell>
        <mxCell id="ZJu1gmb1K3_EzXzDdYMx-107" value="" style="sketch=0;points=[[0,0,0],[0.25,0,0],[0.5,0,0],[0.75,0,0],[1,0,0],[0,1,0],[0.25,1,0],[0.5,1,0],[0.75,1,0],[1,1,0],[0,0.25,0],[0,0.5,0],[0,0.75,0],[1,0.25,0],[1,0.5,0],[1,0.75,0]];outlineConnect=0;fontColor=#232F3E;gradientColor=#60A337;gradientDirection=north;fillColor=#277116;strokeColor=#ffffff;dashed=0;verticalLabelPosition=bottom;verticalAlign=top;align=center;html=1;fontSize=12;fontStyle=0;aspect=fixed;shape=mxgraph.aws4.resourceIcon;resIcon=mxgraph.aws4.s3;" parent="ZJu1gmb1K3_EzXzDdYMx-106" vertex="1">
          <mxGeometry x="880" y="680" width="40" height="40" as="geometry" />
        </mxCell>
        <mxCell id="ZJu1gmb1K3_EzXzDdYMx-119" style="edgeStyle=orthogonalEdgeStyle;rounded=0;orthogonalLoop=1;jettySize=auto;html=1;exitX=1;exitY=0.5;exitDx=0;exitDy=0;exitPerimeter=0;" parent="ZJu1gmb1K3_EzXzDdYMx-106" source="ZJu1gmb1K3_EzXzDdYMx-108" target="ZJu1gmb1K3_EzXzDdYMx-62" edge="1">
          <mxGeometry relative="1" as="geometry" />
        </mxCell>
        <mxCell id="ZJu1gmb1K3_EzXzDdYMx-108" value="" style="sketch=0;points=[[0,0,0],[0.25,0,0],[0.5,0,0],[0.75,0,0],[1,0,0],[0,1,0],[0.25,1,0],[0.5,1,0],[0.75,1,0],[1,1,0],[0,0.25,0],[0,0.5,0],[0,0.75,0],[1,0.25,0],[1,0.5,0],[1,0.75,0]];outlineConnect=0;fontColor=#232F3E;gradientColor=#FF4F8B;gradientDirection=north;fillColor=#BC1356;strokeColor=#ffffff;dashed=0;verticalLabelPosition=bottom;verticalAlign=top;align=center;html=1;fontSize=12;fontStyle=0;aspect=fixed;shape=mxgraph.aws4.resourceIcon;resIcon=mxgraph.aws4.sns;" parent="ZJu1gmb1K3_EzXzDdYMx-106" vertex="1">
          <mxGeometry x="1000" y="680" width="40" height="40" as="geometry" />
        </mxCell>
        <mxCell id="ZJu1gmb1K3_EzXzDdYMx-109" value="dev-facto" style="text;html=1;strokeColor=none;fillColor=none;align=center;verticalAlign=middle;whiteSpace=wrap;rounded=0;" parent="ZJu1gmb1K3_EzXzDdYMx-106" vertex="1">
          <mxGeometry x="850" y="720" width="110" height="30" as="geometry" />
        </mxCell>
        <mxCell id="ZJu1gmb1K3_EzXzDdYMx-111" value="" style="sketch=0;points=[[0,0,0],[0.25,0,0],[0.5,0,0],[0.75,0,0],[1,0,0],[0,1,0],[0.25,1,0],[0.5,1,0],[0.75,1,0],[1,1,0],[0,0.25,0],[0,0.5,0],[0,0.75,0],[1,0.25,0],[1,0.5,0],[1,0.75,0]];outlineConnect=0;fontColor=#232F3E;gradientColor=#4D72F3;gradientDirection=north;fillColor=#3334B9;strokeColor=#ffffff;dashed=0;verticalLabelPosition=bottom;verticalAlign=top;align=center;html=1;fontSize=12;fontStyle=0;aspect=fixed;shape=mxgraph.aws4.resourceIcon;resIcon=mxgraph.aws4.dynamodb;" parent="ZJu1gmb1K3_EzXzDdYMx-106" vertex="1">
          <mxGeometry x="920" y="500" width="40" height="40" as="geometry" />
        </mxCell>
        <mxCell id="ZJu1gmb1K3_EzXzDdYMx-113" value="dev-facto-upload" style="text;html=1;strokeColor=none;fillColor=none;align=center;verticalAlign=middle;whiteSpace=wrap;rounded=0;" parent="ZJu1gmb1K3_EzXzDdYMx-106" vertex="1">
          <mxGeometry x="960" y="720" width="120" height="25" as="geometry" />
        </mxCell>
        <mxCell id="ZJu1gmb1K3_EzXzDdYMx-123" value="" style="endArrow=classic;startArrow=classic;html=1;rounded=0;entryX=0;entryY=0.5;entryDx=0;entryDy=0;entryPerimeter=0;" parent="ZJu1gmb1K3_EzXzDdYMx-106" target="ZJu1gmb1K3_EzXzDdYMx-111" edge="1">
          <mxGeometry width="50" height="50" relative="1" as="geometry">
            <mxPoint x="820" y="520" as="sourcePoint" />
            <mxPoint x="680" y="500" as="targetPoint" />
            <Array as="points" />
          </mxGeometry>
        </mxCell>
        <mxCell id="2r4Qx-0JEMyAotbG9rfD-1" value="" style="sketch=0;points=[[0,0,0],[0.25,0,0],[0.5,0,0],[0.75,0,0],[1,0,0],[0,1,0],[0.25,1,0],[0.5,1,0],[0.75,1,0],[1,1,0],[0,0.25,0],[0,0.5,0],[0,0.75,0],[1,0.25,0],[1,0.5,0],[1,0.75,0]];outlineConnect=0;fontColor=#232F3E;gradientColor=#F54749;gradientDirection=north;fillColor=#C7131F;strokeColor=#ffffff;dashed=0;verticalLabelPosition=bottom;verticalAlign=top;align=center;html=1;fontSize=12;fontStyle=0;aspect=fixed;shape=mxgraph.aws4.resourceIcon;resIcon=mxgraph.aws4.amplify;" parent="ZJu1gmb1K3_EzXzDdYMx-106" vertex="1">
          <mxGeometry x="280" y="680" width="40" height="40" as="geometry" />
        </mxCell>
      </root>
    </mxGraphModel>
  </diagram>
</mxfile>
